M48
;GenerationSoftware,Autodesk,EAGLE,8.6.0*%
;CreationDate,2018-04-17T04:18:31Z*%
FMAT,2
ICI,OFF
METRIC,TZ,000.000
T6C0.350
T5C0.800
T4C0.813
T3C1.000
T2C1.016
T1C1.900
%
G90
M71
T1
X46990Y2700
X46990Y10000
T2
X17780Y25400
X2540Y46990
X2540Y44450
X2540Y41910
X2540Y39370
X2540Y36830
X7620Y11430
X2540Y11430
X11430Y45720
X6350Y45720
X2540Y34290
X2540Y31750
X2540Y29210
X2540Y26670
X2540Y24130
X2540Y21590
X2540Y19050
X17780Y22860
X17780Y20320
X46990Y20320
X46990Y22860
X46990Y25400
X46990Y27940
X46990Y30480
X46990Y33020
X46990Y35560
X46990Y38100
X2540Y16510
T3
X39560Y3270
X31560Y3270
T4
X6350Y26670
X29210Y13970
X38100Y46990
X38100Y44450
X39370Y31750
X15240Y7620
X15240Y2540
X8890Y2540
X8890Y5080
X3810Y2540
X3810Y5080
X12700Y16510
X12700Y26670
X10160Y16510
X10160Y26670
X24130Y48260
X13970Y48260
X41910Y31750
X6350Y16510
X21590Y44450
X21590Y41910
X21590Y39370
X21590Y36830
X21590Y34290
X21590Y31750
X21590Y29210
X21590Y26670
X21590Y24130
X21590Y21590
X21590Y19050
X21590Y16510
X21590Y13970
X21590Y11430
X29210Y11430
X20320Y2540
X29210Y16510
X29210Y19050
X29210Y21590
X29210Y24130
X29210Y26670
X29210Y29210
X29210Y31750
X29210Y34290
X29210Y36830
X29210Y39370
X29210Y41910
X29210Y44450
X40640Y22860
X20320Y5080
X22860Y2540
X22860Y5080
X35560Y22860
X26670Y2540
X28575Y3810
X26670Y5080
T5
X37560Y3270
X35560Y3270
X33560Y3270
X43090Y5550
X43090Y7150
X41890Y4750
X41890Y6350
X41890Y7950
T6
X45720Y46990
X46990Y45720
X46990Y48260
X45720Y43180
M30