G04 EAGLE Gerber X2 export*
%TF.Part,Single*%
%TF.FileFunction,Soldermask,Top,1*%
%TF.FilePolarity,Negative*%
%TF.GenerationSoftware,Autodesk,EAGLE,8.6.0*%
%TF.CreationDate,2018-04-17T04:18:31Z*%
G75*
%MOMM*%
%FSLAX34Y34*%
%LPD*%
%AMOC8*
5,1,8,0,0,1.08239X$1,22.5*%
G01*
%ADD10P,1.649562X8X292.500000*%
%ADD11P,1.649562X8X22.500000*%
%ADD12P,1.649562X8X112.500000*%
%ADD13C,1.524000*%
%ADD14C,1.511200*%
%ADD15C,3.053200*%
%ADD16C,2.082800*%
%ADD17P,1.649562X8X202.500000*%
%ADD18C,1.524000*%
%ADD19C,1.711200*%
%ADD20C,0.959600*%


D10*
X381000Y469900D03*
X381000Y444500D03*
D11*
X393700Y317500D03*
X419100Y317500D03*
D12*
X203200Y25400D03*
X203200Y50800D03*
X228600Y25400D03*
X228600Y50800D03*
D13*
X355600Y228600D03*
D11*
X406400Y228600D03*
D13*
X152400Y25400D03*
D12*
X152400Y76200D03*
D14*
X418900Y47500D03*
X418900Y63500D03*
X418900Y79500D03*
X430900Y55500D03*
X430900Y71500D03*
D15*
X469900Y100000D03*
X469900Y27000D03*
D16*
X469900Y203200D03*
X469900Y228600D03*
X469900Y254000D03*
X469900Y279400D03*
X469900Y304800D03*
X469900Y330200D03*
X469900Y355600D03*
X469900Y381000D03*
X25400Y165100D03*
X25400Y190500D03*
X25400Y215900D03*
X25400Y241300D03*
X25400Y266700D03*
X25400Y292100D03*
X25400Y317500D03*
X25400Y342900D03*
D12*
X88900Y25400D03*
X88900Y50800D03*
X38100Y25400D03*
X38100Y50800D03*
X127000Y165100D03*
X127000Y266700D03*
X101600Y165100D03*
X101600Y266700D03*
D17*
X241300Y482600D03*
X139700Y482600D03*
D10*
X63500Y266700D03*
X63500Y165100D03*
D18*
X209296Y444500D02*
X222504Y444500D01*
X222504Y419100D02*
X209296Y419100D01*
X209296Y393700D02*
X222504Y393700D01*
X222504Y368300D02*
X209296Y368300D01*
X209296Y342900D02*
X222504Y342900D01*
X222504Y317500D02*
X209296Y317500D01*
X209296Y292100D02*
X222504Y292100D01*
X222504Y266700D02*
X209296Y266700D01*
X209296Y241300D02*
X222504Y241300D01*
X222504Y215900D02*
X209296Y215900D01*
X209296Y190500D02*
X222504Y190500D01*
X222504Y165100D02*
X209296Y165100D01*
X209296Y139700D02*
X222504Y139700D01*
X222504Y114300D02*
X209296Y114300D01*
X285496Y114300D02*
X298704Y114300D01*
X298704Y139700D02*
X285496Y139700D01*
X285496Y165100D02*
X298704Y165100D01*
X298704Y190500D02*
X285496Y190500D01*
X285496Y215900D02*
X298704Y215900D01*
X298704Y241300D02*
X285496Y241300D01*
X285496Y266700D02*
X298704Y266700D01*
X298704Y292100D02*
X285496Y292100D01*
X285496Y317500D02*
X298704Y317500D01*
X298704Y342900D02*
X285496Y342900D01*
X285496Y368300D02*
X298704Y368300D01*
X298704Y393700D02*
X285496Y393700D01*
X285496Y419100D02*
X298704Y419100D01*
X298704Y444500D02*
X285496Y444500D01*
D19*
X315600Y32700D03*
D14*
X335600Y32700D03*
X355600Y32700D03*
X375600Y32700D03*
D19*
X395600Y32700D03*
D10*
X266700Y25400D03*
X285750Y38100D03*
X266700Y50800D03*
D16*
X63500Y457200D03*
X114300Y457200D03*
X25400Y114300D03*
X76200Y114300D03*
X25400Y368300D03*
X25400Y393700D03*
X25400Y419100D03*
X25400Y444500D03*
X25400Y469900D03*
X177800Y254000D03*
X177800Y228600D03*
X177800Y203200D03*
D20*
X457200Y431800D03*
X469900Y482600D03*
X469900Y457200D03*
X457200Y469900D03*
M02*
